<?xml version="1.0" standalone="no"?>
<!DOCTYPE svg PUBLIC "-//W3C//DTD SVG 20010904//EN"
 "http://www.w3.org/TR/2001/REC-SVG-20010904/DTD/svg10.dtd">
<svg version="1.0" xmlns="http://www.w3.org/2000/svg"
 width="16.000000pt" height="16.000000pt" viewBox="0 0 16.000000 16.000000"
 preserveAspectRatio="xMidYMid meet">
<metadata>
Created by potrace 1.11, written by Peter Selinger 2001-2013
</metadata>
<g transform="translate(0.000000,16.000000) scale(0.010256,-0.010256)"
fill="#000000" stroke="none">
<path d="M1041 1255 c-69 -59 -93 -195 -90 -510 3 -250 2 -254 -57 -324 -46
-55 -85 -38 -113 51 -10 32 -9 44 13 98 78 191 118 470 81 565 -19 50 -38 65
-85 65 -46 0 -84 -43 -110 -126 -18 -56 -23 -100 -27 -239 l-5 -171 -44 -18
c-51 -21 -100 -75 -150 -163 -37 -67 -65 -93 -100 -93 -24 0 -44 41 -44 91 0
29 -23 59 -45 59 -18 0 -45 -28 -45 -47 0 -25 -42 -92 -62 -99 -44 -14 -62 44
-34 110 26 63 76 80 141 49 34 -16 36 -16 56 4 29 28 17 58 -31 83 -50 26 -93
25 -147 -1 -128 -62 -166 -240 -67 -318 37 -29 92 -27 138 4 l38 25 30 -25
c48 -41 119 -33 176 19 l23 21 17 -21 c51 -64 138 -56 195 17 l25 32 16 -31
c20 -39 63 -62 116 -62 35 0 48 7 91 47 27 25 51 44 53 42 2 -2 11 -19 20 -37
46 -90 177 -95 242 -9 18 23 20 23 53 10 69 -29 143 6 200 96 34 53 39 82 16
101 -23 19 -58 4 -79 -34 -10 -19 -31 -47 -47 -62 -25 -24 -33 -26 -57 -18
-24 8 -28 16 -34 67 -8 62 -19 90 -51 124 -25 28 -80 39 -114 24 -20 -9 -24
-9 -20 1 58 152 97 320 97 419 0 161 -92 256 -179 184z m86 -225 c-6 -92 -38
-225 -72 -300 -15 -33 -16 -26 -11 145 4 177 18 266 49 304 9 11 14 7 25 -20
11 -25 13 -59 9 -129z m-348 -200 c-31 -139 -38 -141 -39 -10 0 116 18 229 42
272 12 20 13 12 16 -72 2 -70 -3 -120 -19 -190z m-106 -287 c4 -20 -4 -46 -25
-85 -45 -84 -88 -92 -88 -15 0 47 26 93 62 113 35 20 45 17 51 -13z m531 5
c42 -59 -4 -178 -69 -178 -43 0 -87 96 -70 151 7 22 9 21 26 -14 21 -39 60
-57 88 -40 22 14 25 47 6 63 -17 14 -20 40 -6 40 6 0 17 -10 25 -22z"/>
</g>
</svg>
